# xmcd
#
# Track frame offsets:
#	150
#	12339
#	25517
#	36440
#	49369
#	61871
#	73524
#	83404
#	97175
#	109742
#	122060
#	133881
#	147427
#	158908
#	170227
#	179617
#	191645
#	203430
#	213927
#	226731
#	237335
#	249397
#	260536
#	273726
#	285064
#	295809
#	307774
#	319620
#	332782
#
# Disc length: 4580 seconds
#
# Revision: 1
# Processed by: cddbd v1.5.2PL0 Copyright (c) Steve Scherf et al.
# Submitted via: audiograbber 1.83.01
#
DISCID=a511e21d
DTITLE=OS 3 DO NORDESTE - SÉRIE AUTÓGRAFOS
DYEAR=1900
DGENRE=FORRÓ
TTITLE0=POIBIDO COCHILAR
TTITLE1=VOLTAR PRA BAHIA
TTITLE2=PRA VIRAR LOBISOMEM
TTITLE3=FORRÓ DO POEIRÃO
TTITLE4=A VENDINHA DA FEIRA
TTITLE5=HOMEM COM H
TTITLE6=FORRÓ DE TAMANCO
TTITLE7=ESTOUREI NO NORTE
TTITLE8=BRASIL EXPRESSO
TTITLE9=POR DE BAIXO DO PANA
TTITLE10=DA BOCA PRA FORA
TTITLE11=FORRÓ CASAMENTEIRO
TTITLE12=TÁ BOCA PRA FORA
TTITLE13=ELAS POR ELAS
TTITLE14=O MELHOR FORRÓ DO MUNDO
TTITLE15=FORRÓ SEM FRESCURA
TTITLE16=AMOR SBRANDO
TTITLE17=VAMOS TODOS FESTEJAR
TTITLE18=EU ERA FELIZ
TTITLE19=MINHA FOGUEIRA
TTITLE20=FORRÓ TEMPERADO
TTITLE21=CAMA FOFINHA
TTITLE22=BRINCADEIRA TEM HORA
TTITLE23=PROCURANDO PAZ
TTITLE24=GAROTA BOSSA NOVA
TTITLE25=SÃO JOÃO EM SANTA LUZIA
TTITLE26=FORRÓ PINGADO
TTITLE27=MORENA LOUCA
TTITLE28=TÁ ASSIM DE GAVIÃO
EXTD=
EXTT0=
EXTT1=
EXTT2=
EXTT3=
EXTT4=
EXTT5=
EXTT6=
EXTT7=
EXTT8=
EXTT9=
EXTT10=
EXTT11=
EXTT12=
EXTT13=
EXTT14=
EXTT15=
EXTT16=
EXTT17=
EXTT18=
EXTT19=
EXTT20=
EXTT21=
EXTT22=
EXTT23=
EXTT24=
EXTT25=
EXTT26=
EXTT27=
EXTT28=
PLAYORDER=
